<svg xmlns="http://www.w3.org/2000/svg" style="display:none">
  

  <symbol id="ic-library" viewBox="0 0 24 24" fill="none">
    <rect x="4" y="5" width="16" height="3" rx="1" stroke="currentColor" stroke-width="1.5"></rect>
    <rect x="4" y="10.5" width="16" height="3" rx="1" stroke="currentColor" stroke-width="1.5"></rect>
    <rect x="4" y="16" width="11" height="3" rx="1" stroke="currentColor" stroke-width="1.5"></rect>
  </symbol>

  <symbol id="ic-dashboard" viewBox="0 0 24 24" fill="none">
    <rect x="4" y="4" width="7" height="7" rx="1.5" stroke="currentColor" stroke-width="1.5"></rect>
    <rect x="13" y="4" width="7" height="4" rx="1.5" stroke="currentColor" stroke-width="1.5"></rect>
    <rect x="13" y="10" width="7" height="10" rx="1.5" stroke="currentColor" stroke-width="1.5"></rect>
    <rect x="4" y="13" width="7" height="7" rx="1.5" stroke="currentColor" stroke-width="1.5"></rect>
  </symbol>

  <symbol id="ic-review" viewBox="0 0 24 24" fill="none">
    <path d="M9 12l2 2 4-4" stroke="currentColor" stroke-width="1.6" stroke-linecap="round" stroke-linejoin="round"></path>
    <circle cx="12" cy="12" r="8.2" stroke="currentColor" stroke-width="1.5"></circle>
  </symbol>

  <symbol id="ic-target" viewBox="0 0 24 24" fill="none">
    <path d="M12 3v18M3 12h18" stroke="currentColor" stroke-width="1.5" stroke-linecap="round"></path>
    <circle cx="12" cy="12" r="9" stroke="currentColor" stroke-width="1.5" stroke-dasharray="2.5 3"></circle>
  </symbol>

  <symbol id="ic-search" viewBox="0 0 24 24" fill="none">
    <circle cx="11" cy="11" r="6.5" stroke="currentColor" stroke-width="1.6"></circle>
    <path d="M16 16l4 4" stroke="currentColor" stroke-width="1.6" stroke-linecap="round"></path>
  </symbol>

  <symbol id="ic-check" viewBox="0 0 24 24" fill="none">
    <path d="M5 12l5 5L20 7" stroke="currentColor" stroke-width="2" stroke-linecap="round" stroke-linejoin="round"></path>
  </symbol>

  <symbol id="ic-arrow-right" viewBox="0 0 24 24" fill="none">
    <path d="M5 12h14m0 0l-5-5m5 5l-5 5" stroke="currentColor" stroke-width="1.6" stroke-linecap="round" stroke-linejoin="round"></path>
  </symbol>

  <symbol id="ic-chevron-right" viewBox="0 0 24 24" fill="none">
    <path d="M9 6l6 6-6 6" stroke="currentColor" stroke-width="1.8" stroke-linecap="round" stroke-linejoin="round"></path>
  </symbol>

  <symbol id="ic-chevron-left" viewBox="0 0 24 24" fill="none">
    <path d="M15 6l-6 6 6 6" stroke="currentColor" stroke-width="1.8" stroke-linecap="round" stroke-linejoin="round"></path>
  </symbol>

  <symbol id="ic-undo" viewBox="0 0 24 24" fill="none">
    <path d="M9 14L4 9l5-5" stroke="currentColor" stroke-width="1.7" stroke-linecap="round" stroke-linejoin="round"></path>
    <path d="M4 9h11a5 5 0 015 5v1" stroke="currentColor" stroke-width="1.7" stroke-linecap="round"></path>
  </symbol>

  <symbol id="ic-flag" viewBox="0 0 24 24" fill="none">
    <path d="M5 21V4m0 0h11l-2 4 2 4H5" stroke="currentColor" stroke-width="1.6" stroke-linecap="round" stroke-linejoin="round"></path>
  </symbol>

  <symbol id="ic-sparkle" viewBox="0 0 24 24" fill="none">
    <path d="M12 3l2.2 5.6L20 9l-4.4 3.9L17 19l-5-3.2L7 19l1.4-6.1L4 9l5.8-.4L12 3z" stroke="currentColor" stroke-width="1.4" stroke-linejoin="round"></path>
  </symbol>

  <symbol id="ic-plus" viewBox="0 0 24 24" fill="none">
    <path d="M12 5v14M5 12h14" stroke="currentColor" stroke-width="1.8" stroke-linecap="round"></path>
  </symbol>

  <symbol id="ic-equalizer" viewBox="0 0 24 24" fill="none">
    <rect x="3" y="10" width="2.6" height="4" rx="1.3" fill="currentColor"></rect>
    <rect x="7.5" y="6" width="2.6" height="12" rx="1.3" fill="currentColor"></rect>
    <rect x="12" y="3" width="2.6" height="18" rx="1.3" fill="currentColor"></rect>
    <rect x="16.5" y="8" width="2.6" height="8" rx="1.3" fill="currentColor"></rect>
  </symbol>
</svg>